<?xml version="1.0" encoding="utf-8"?>
<!-- Generator: Adobe Illustrator 24.0.1, SVG Export Plug-In . SVG Version: 6.00 Build 0)  -->
<svg version="1.1" id="Layer_1" xmlns="http://www.w3.org/2000/svg" xmlns:xlink="http://www.w3.org/1999/xlink" x="0px" y="0px"
	 viewBox="0 0 512 512" style="enable-background:new 0 0 512 512;" xml:space="preserve">
<style type="text/css">
	.st0{fill:#7ECBFE;}
</style>
<g>
	<g>
		<g>
			<path class="st0" d="M363.9,289.6c-15.1,0-29.7-5.4-41.2-15.1c-3.3-2.9-3.7-7.9-1-11.3c1.6-2,3.9-3.1,6.4-3.1
				c1.9,0,3.7,0.6,5.1,1.8c8.3,7,19.2,10.9,30.6,10.9s22.4-3.8,30.6-10.8c1.5-1.2,3.3-1.8,5.2-1.8c2.3,0,4.6,1,6.1,2.7
				c1.5,1.6,2.2,3.8,2.1,6s-1.1,4.2-2.7,5.7C393.6,284.2,379,289.6,363.9,289.6z M132,289.1c-15.1,0-29.7-5.4-41.3-15.1l-0.1-0.1
				l-0.1-0.1c-2.7-2.8-3-7-0.9-10.3c1.5-2.3,4.1-3.7,6.8-3.7c1.6,0,3.2,0.5,4.6,1.4l0.1,0.1l0.1,0.1c8.3,7,19.2,10.8,30.6,10.8
				c11.5,0,22.3-3.8,30.6-10.7l0.1-0.1c0.1-0.1,0.2-0.2,0.4-0.3c1.5-1.2,3.3-1.8,5.1-1.8c2.5,0,4.9,1.1,6.4,3.1
				c2.8,3.6,2.2,8.7-1.3,11.6C161.7,283.7,147,289.1,132,289.1z"/>
		</g>
		<g>
			<path class="st0" d="M301,414.8c-4.5,0-8.2-3.7-8.2-8.2v-28.7l-24.9-15c-6.6,14-10.5,28.9-11.6,44.4c-0.3,3.8-3.3,6.9-7,7.4
				c-0.2,0.1-0.5,0.2-0.9,0.2h-0.9l-0.1,0c-0.4,0-0.6-0.1-0.8-0.2c-0.7-0.1-1.4-0.3-2.1-0.6l-0.1,0l-0.3-0.1
				c-2.5-1.3-4.2-3.8-4.4-6.5c-1.1-15.5-5.1-30.4-11.8-44.3l-24.8,14.9v28.7c-0.2,4.3-3.6,7.8-7.9,8c-0.1,0-0.2,0-0.3,0
				c-4.4,0-8.1-3.5-8.2-7.9l0-33.5c0-2.9,1.5-5.6,4-7.1l29.1-17.5c-9.9-14.6-23.1-27-38.2-36.1c-14.9,9.3-32,14.3-49.6,14.3
				c-17.7,0-35-5-50-14.5c-15.1,9.1-28.2,21.5-38,36.2l29.4,17.7c2.5,1.5,4,4.2,4,7.1v33.4c0,4.5-3.7,8.2-8.2,8.2s-8.2-3.7-8.2-8.2
				v-28.7l-24.9-15c-6.6,14-10.5,28.9-11.6,44.4c-0.4,4.3-3.9,7.6-8.2,7.6h-0.6l-0.1,0c-2.2-0.2-4.2-1.2-5.6-2.9
				c-1.4-1.7-2.1-3.8-1.9-6c1.7-21.1,7.4-40.5,17.1-57.7c0.1-0.4,0.2-0.7,0.4-1.1l0.1-0.2l0.1-0.2c0.3-0.4,0.6-0.7,0.9-1
				c10.5-17.5,25-32.7,42.1-43.9c-17.2-15.8-27.8-37.2-29.9-60.6c-0.2-0.2-0.4-0.6-0.6-1.1c-17.4-51.4-12.6-92.1-12.4-93.8l2.8-34.8
				c0.1-1.6,0.7-3.1,1.7-4.4c1.6-2,3.9-3.2,6.5-3.2c1.9,0,3.6,0.6,5.1,1.7c0.3,0.2,8.5,6.4,23.5,6.4c9,0,18.5-2.2,28.3-6.6
				c11.9-5.3,28.9-8.4,46.7-8.4c23.6,0,46.3,5.1,64,14.4c19.2,10,31,24.5,34.3,41.9l0,0.2v0.4c0.4,2.7,4,35.6-13.1,86.2
				c0,0.1,0,0.1-0.1,0.2c-1.9,23.7-12.5,45.5-30,61.5c17.1,11.2,31.6,26.2,42.1,43.7c0.3,0.3,0.7,0.7,0.9,1.1l0.1,0.2l0.1,0.2
				c0.2,0.4,0.3,0.8,0.4,1.2c3.5,6.4,6.5,13.1,8.9,19.9c2.4-6.9,5.4-13.6,8.9-20.1c0.1-0.4,0.3-0.8,0.4-1.1l0.1-0.2l0.1-0.2
				c0.3-0.3,0.5-0.7,0.8-1c10.4-17.4,24.7-32.4,41.6-43.6c-8.1-7.5-14.7-16.2-19.8-26c-4.8,10.8-16.4,21.7-43.9,21.7
				c-3.3,0-6.8-0.2-10.5-0.5l-0.1,0l-2-0.3l-0.1-1.6c-0.8-20,3.5-35,12.8-44.8c9.7-10.1,22.7-12.2,31.9-12.2c0.5,0,1.1,0,1.6,0
				c0-0.8-0.1-1.6-0.1-2.5c-4.1-10.5-8.4-22.8-8.4-35.9c0-54.6,42.9-94.3,102-94.3c59.5,0,102.7,39.7,102.7,94.3
				c0,13-4.7,25-8.9,35.6l-0.2,0.6c0,0.8-0.1,1.6-0.1,2.3c0.8,0,1.5,0,2.3,0c9.2,0,22.2,2.1,31.9,12.2c9.3,9.7,13.7,24.8,12.9,44.8
				l-0.1,1.6l-2,0.3l-0.1,0c-3.7,0.3-7.2,0.5-10.5,0.5c-28,0-39.6-11.3-44.3-22.4c-5,9.9-11.8,19-19.9,26.5
				c17,11.2,31.5,26.2,42,43.7c0.3,0.3,0.7,0.7,0.9,1.1l0.1,0.2l0.1,0.2c0.2,0.4,0.3,0.8,0.4,1.2c9.6,17.1,15.3,36.5,17,57.6
				c0.2,2.2-0.5,4.3-1.9,6c-1.4,1.7-3.4,2.7-5.6,2.9c-0.2,0-0.4,0-0.7,0c-4.3,0-7.9-3.3-8.2-7.6c-1.1-15.5-5.1-30.4-11.8-44.3
				l-24.8,14.9v28.7c0,4.5-3.7,8.2-8.2,8.2s-8.2-3.7-8.2-8.2v-33.4c0-2.9,1.5-5.6,4-7.1l29.1-17.5c-9.9-14.5-23-26.9-38-35.9
				c-15,9.6-32.3,14.6-50.1,14.6c-17.8,0-35.1-5.1-50.1-14.6c-14.9,9-27.8,21.4-37.5,35.8l29.4,17.7c2.5,1.5,4,4.2,4,7.1v33.4
				C309.3,411.1,305.6,414.8,301,414.8z M286.7,240.2c3.5,39.6,37,70.5,76.9,70.5c39.9-0.1,73.4-30.9,76.9-70.4
				c-26.3-7.9-60-23.3-76.8-51.9C346.9,216.9,313.1,232.3,286.7,240.2z M55,238.9c2.9,37.6,33.4,68.1,71.1,71c2,0.2,4,0.2,6,0.2
				c39.8,0,73.4-30.9,76.8-70.6L182,201.1c-9.4,3.2-30.2,9.5-49.9,9.7c-19.7-0.2-39.7-5.9-50.7-9.7L55,238.9z M266.8,254.9
				c-5.8,0.2-13.2,1.7-18.5,7.1c-4.1,4.3-6.7,10.7-7.8,19.2c11.4-0.6,19.1-3.6,23-8.9C267.3,267.2,267.3,259.8,266.8,254.9z
				 M460.9,254.9c-0.5,4.9-0.4,12.3,3.3,17.4c3.8,5.3,11.6,8.3,23,8.9c-1.1-8.5-3.7-14.9-7.8-19.2
				C474.2,256.7,466.7,255.2,460.9,254.9z M363.9,159.4c3.7,0,7,2.6,7.9,6.2c8.9,34,48.3,51.2,72.3,58.7c2.8-7.5,5.7-15.9,5.7-24.2
				c0-45.1-36.3-77.8-86.3-77.8c-25.5,0-48.2,8.7-64,24.5c-14.1,14.1-21.5,32.6-21.5,53.3c0,8.5,2.4,16.9,5,24.1
				c24.1-7.5,63.7-24.8,72.5-58.6c0.9-3.6,4.2-6.1,7.9-6.2h0H363.9z M185.1,183c2.7,0,5.2,1.3,6.8,3.5l22.8,32.5
				c10-36.8,7.7-61,7.5-62.9c-2.4-12.2-11-22.3-25.7-30c-15.4-8.1-35.5-12.5-56.6-12.5c-15.4,0-29.9,2.5-39.7,7
				c-11.9,5.4-23.7,8.1-35,8.1c-7.5,0-14.7-1.2-21.4-3.6l-1.8,23c0,0.4-3.6,30.7,6.9,70.8l22.7-32.4c1.5-2.2,4.1-3.5,6.8-3.5
				c1,0,2.1,0.2,3,0.6c0.3,0.1,26.9,10.6,50.1,10.7c24.1-0.2,50.4-10.6,50.6-10.7C183,183.2,184,183,185.1,183z"/>
		</g>
	</g>
</g>
</svg>
