<?xml version="1.0" encoding="utf-8"?>
<!-- Generator: Adobe Illustrator 24.0.1, SVG Export Plug-In . SVG Version: 6.00 Build 0)  -->
<svg version="1.1" id="Layer_1" xmlns="http://www.w3.org/2000/svg" xmlns:xlink="http://www.w3.org/1999/xlink" x="0px" y="0px"
	 viewBox="0 0 512 512" style="enable-background:new 0 0 512 512;" xml:space="preserve">
<style type="text/css">
	.st0{clip-path:url(#SVGID_2_);}
	.st1{fill:none;stroke:#7ECBFE;stroke-width:15;stroke-linecap:round;stroke-linejoin:round;stroke-miterlimit:10;}
</style>
<g>
	<g>
		<defs>
			<rect id="SVGID_1_" y="0" width="512" height="512"/>
		</defs>
		<clipPath id="SVGID_2_">
			<use xlink:href="#SVGID_1_"  style="overflow:visible;"/>
		</clipPath>
		<g transform="matrix(1.33333 0 0 -1.33333 0 682.667)" class="st0">
			<path class="st1" d="M73.8,417.4c-12.6-14.8-20.2-34.1-20.2-55.1v-0.1c0-3.4-2.1-6.4-5.4-7.4c-24.7-7.6-42.6-30.6-42.6-57.8
				c0-16.7,6.8-31.8,17.7-42.8c10.9-10.9,26.1-17.7,42.8-17.7H138"/>
			<path class="st1" d="M277.7,236.6h40.2c33.4,0,60.5,27.1,60.5,60.5c0,16.7-6.8,31.8-17.7,42.8c-10.9,10.9-26.1,17.7-42.8,17.7
				H316c-3.3,0-6.2,2.1-7.3,5.2c-9.8,28.9-37.2,49.7-69.4,49.7c-7.7,0-15.4-1.2-22.7-3.6c-3.2-1-6.6,0.2-8.6,2.9
				c-15.4,21.6-40.7,35.7-69.3,35.7c-16.6,0-32.1-4.8-45.2-13"/>
			<path class="st1" d="M152.7,351.1c-5.2,3.5-11.3,5.4-17.5,5.3c-17.3,0-31.3-14-31.3-31.3c0-17.3,14-31.3,31.3-31.3
				c7,0,12.8,2.3,17.2,6.2c0.9,0.8,1.8,1.7,2.5,2.6"/>
			<path class="st1" d="M280.1,269.2c0,0-21.2-0.3-22.2,0.1c-1,0.3,1.6,2.1,15.5,21.9c2.6,3.7,4,6.8,4.6,9.4l0.2,1.7
				c0,6.1-5,11.1-11.1,11.1c-5.4,0-9.9-3.9-10.9-9"/>
			<path class="st1" d="M236.4,325.2c0-17.3-14-31.3-31.3-31.3s-31.3,14-31.3,31.3c0,17.3,14,31.3,31.3,31.3
				S236.4,342.5,236.4,325.2z"/>
			<path class="st1" d="M235,165.4c-23.8-23.8-62.3-23.8-86.1,0c-23.8,23.8-23.8,62.3,0,86.1c23.8,23.8,62.3,23.8,86.1,0
				S258.8,189.2,235,165.4z"/>
			<path class="st1" d="M149,165.4l86.1,86.1"/>
			<path class="st1" d="M378.4,161.8c0-15.5-12.6-28.1-28.1-28.1s-28.1,12.6-28.1,28.1s12.6,28.1,28.1,28.1
				C365.8,189.9,378.4,177.3,378.4,161.8z"/>
			<path class="st1" d="M61.9,478.3c0-15.5-12.6-28.1-28.1-28.1S5.6,462.7,5.6,478.3s12.6,28.1,28.1,28.1S61.9,493.8,61.9,478.3z"/>
		</g>
		<use xlink:href="#SVGID_1_"  style="overflow:visible;fill:none;stroke:#7ECBFE;stroke-miterlimit:10;"/>
	</g>
</g>
</svg>
