<?xml version="1.0" encoding="utf-8"?>
<!-- Generator: Adobe Illustrator 24.0.1, SVG Export Plug-In . SVG Version: 6.00 Build 0)  -->
<svg version="1.1" id="Layer_1" xmlns="http://www.w3.org/2000/svg" xmlns:xlink="http://www.w3.org/1999/xlink" x="0px" y="0px"
	 viewBox="0 0 512 512" style="enable-background:new 0 0 512 512;" xml:space="preserve">
<style type="text/css">
	.st0{fill:#7ECBFE;}
</style>
<g>
	<path class="st0" d="M485.3,344.6L473.4,321c-7.5-14.9-19.9-26.8-35.2-33.6L414.8,277c-14.5-6.5-25.6-18.8-30.5-34l63.6-63.6
		c9.4-9.4,10.7-24.2,3-35l13-13c5.2-5.2,8-12,8-19.3s-2.8-14.2-8-19.3l-4.7-4.7C449,77.7,431,77.7,420.7,88l-13,13
		c-10.5-7.2-25.8-6.2-35,3l-32,32c-12.7-10.3-28.5-16-44.9-16c-11.1,0-22,2.6-31.8,7.6V64c0-10.1-6.4-19.2-16-22.5V24
		c0-8.8-7.2-16-16-16h-16c-8.8,0-16,7.2-16,16v17.5c-9.6,3.4-16,12.4-16,22.5v68.7l-4.7-4.7c-10.3-10.3-28.3-10.3-38.6,0L128,140.7
		c-5.2,5.2-8,12-8,19.3s2.8,14.2,8,19.3l22.8,22.8c-0.4,1.6-0.8,3.2-1,4.8l-3.7,25.8c-1,6.8-4.8,12.8-10.4,16.6l-1.8,1.2L91.3,208
		C81,197.7,63,197.7,52.7,208L16,244.7c-5.2,5.2-8,12-8,19.3s2.8,14.2,8,19.3l43,42.9c-0.1,0.1-0.1,0.2-0.2,0.3l-13,21.7
		c-3.7,6.2-5.7,13.3-5.7,20.6v11.9c0,5.4-1.9,10.8-5.3,15l-19.8,24.8c-4.5,5.6-6.9,12.6-6.9,19.8C8,457.8,22.2,472,39.7,472h37
		l24,24c5.2,5.2,12,8,19.3,8s14.2-2.8,19.3-8l24-24H480c13.2,0,24-10.8,24-24v-80C504,356.8,496.2,347.1,485.3,344.6z M364.6,172.3
		c-2.5-9.1-6.8-17.5-12.7-24.9l8.1-8.1l52.7,52.7l-33.3,33.3L364.6,172.3z M432,99.3c4.3-4.3,11.7-4.3,16,0l4.7,4.7
		c2.1,2.1,3.3,5,3.3,8s-1.2,5.9-3.3,8L440,132.7L419.3,112L432,99.3z M384,115.3c4.3-4.3,11.7-4.3,16,0l36.7,36.7
		c2.1,2.1,3.3,5,3.3,8s-1.2,5.9-3.3,8L424,180.7L371.3,128L384,115.3z M248,104h-48V88h48V104z M232,24v16h-16V24H232z M208,56h32
		c4.4,0,8,3.6,8,8v8h-48v-8C200,59.6,203.6,56,208,56z M200,120h48v16l-39.6,21.1l-8.4-8.4V120z M139.3,168c-2.1-2.1-3.3-5-3.3-8
		s1.2-5.9,3.3-8l12.7-12.7c4.3-4.3,11.7-4.3,16,0l25.7,25.7l-23.1,12.3c-4.6,2.5-8.7,5.9-12,9.9L139.3,168z M24,264
		c0-3,1.2-5.9,3.3-8L64,219.3c4.3-4.3,11.7-4.3,16,0l68.8,68.8c-0.3,0.3-0.7,0.5-1,0.8l-4.8,4.8c-2,2.1-4.6,3.5-7.4,4.2l-17.6,4.4
		c-7.3,1.9-13.3,7-16.2,13.9l-7.9-2.6c-7.7-2.5-16-1.6-23.1,2L27.3,272C25.2,269.9,24,267,24,264z M128,484.7
		c-4.3,4.3-11.7,4.3-16,0L75.3,448c-2.1-2.1-3.3-5-3.3-8c0-3,1.2-5.9,3.3-8L88,419.3l52.7,52.7L128,484.7z M200,380.7L179.3,360
		l12.7-12.7c4.3-4.3,11.7-4.3,16,0l4.7,4.7c2.1,2.1,3.3,5,3.3,8s-1.2,5.9-3.3,8L200,380.7z M196.7,400c2.1,2.1,3.3,5,3.3,8
		s-1.2,5.9-3.3,8L184,428.7L131.3,376l12.7-12.7c4.3-4.3,11.7-4.3,16,0L196.7,400z M120,387.3l52.7,52.7L152,460.7L99.3,408
		L120,387.3z M179.3,456l28.7-28.7c9.4-9.4,10.7-24.2,3-35l13-13c5.2-5.2,8-12,8-19.3s-2.8-14.2-8-19.3l-4.7-4.7
		c-10.3-10.3-28.3-10.3-38.6,0l-13,13c-10.5-7.2-25.8-6.2-35,3L64,420.7c-9.5,9.5-10.7,24.5-2.7,35.3H39.7C31,456,24,448.9,24,440.2
		c0-3.5,1.2-7,3.4-9.7l19.8-24.7c5.7-7.1,8.8-15.9,8.8-25v-11.9c0-4.3,1.2-8.6,3.4-12.4l13-21.7c3.4-5.5,10.2-8,16.4-6.1l6.9,2.3
		l-7.2,18l14.9,5.9l13-32.4c1-2.4,3-4.2,5.5-4.8l17.6-4.4c5.6-1.4,10.8-4.3,14.9-8.4l4.8-4.8c4.9-4.7,12.4-5.5,18.1-1.8l12.8,8.5
		c5,3.3,10.8,5.1,16.8,5.1H232v-16h-25.2c-2.8,0-5.6-0.8-7.9-2.4l-12.8-8.5c-6.5-4.3-14.5-5.7-22-4.4L145.3,262
		c9-6.3,15.1-16.1,16.7-27l3.7-25.8c1.1-7.6,5.7-14.2,12.5-17.8l91.7-48.9c8-4.3,17-6.5,26.1-6.5c24.9,0.1,46.6,16.6,53.3,40.5
		l19,68.5c5.7,20.7,20.5,37.8,40.1,46.5l23.4,10.4c11.9,5.3,21.5,14.5,27.3,26.1l7.9,15.9H349.7c-12.2,0-24.1,4-33.8,11.4l-1.6-2.4
		l29.7-29.7V320c0-22.1-17.9-40-40-40h-3.3l-40,40H248v16h31.4c2.7,0,5.2,1.3,6.7,3.6l18.3,27.5c-1.8,2.5-3.5,5.1-4.9,7.9l-0.5,1
		H280c-8.8,0-16,7.2-16,16v32c0,8.8,7.2,16,16,16h19.1l0.5,1c2.8,5.5,6.4,10.6,10.8,15H179.3z M360,360h32v96h-32V360z M408,360h32
		v96h-32V360z M280,424v-32h16v32H280z M299.4,330.7c-3.8-5.6-9.8-9.4-16.5-10.3l24.2-24.2c10.8,1.4,19.3,9.9,20.7,20.7l-22.6,22.6
		L299.4,330.7z M313.9,433.9l-1.9-3.8v-44.2l1.9-3.8c5.8-11.8,17.1-19.9,30.1-21.7v95.2C331,453.8,319.7,445.7,313.9,433.9
		L313.9,433.9z M488,448c0,4.4-3.6,8-8,8h-24v-96h24c4.4,0,8,3.6,8,8V448z"/>
	<path class="st0" d="M42.3,266.3l32-32l11.3,11.3l-32,32L42.3,266.3z M66.3,290.3l32-32l11.3,11.3l-32,32L66.3,290.3z M184,216h16
		v16h-16V216z M216,184h16v16h-16V184z M280,152h16v16h-16V152z M266.9,242.1l1.8,5.5c3.3,9.8,12.4,16.4,22.8,16.4h26.8
		c4.8,0,9.4,1.4,13.3,4l15.9,10.6l8.9-13.3l-14-9.4l-12.3-55.4c-2.1-9.7-10.7-16.6-20.6-16.6c-5.7,0-11,2.2-15,6.2l-30.7,30.7
		l-13.3-4.4l-5.1,15.2l16.4,5.5C264.3,237.8,266.2,239.7,266.9,242.1L266.9,242.1z M305.8,201.5c2.6-2.7,7.8-1.1,8.7,2.5l9.9,44.4
		c-2-0.3-4-0.4-6-0.5h-26.8c-3.4,0-6.5-2.2-7.6-5.5l-1.8-5.5c-1-2.8-2.4-5.3-4.3-7.5L305.8,201.5z M376,312h16v16h-16V312z M248,352
		h16v16h-16V352z M232,264h16v16h-16V264z"/>
</g>
</svg>
