<?xml version="1.0" encoding="utf-8"?>
<!-- Generator: Adobe Illustrator 24.0.1, SVG Export Plug-In . SVG Version: 6.00 Build 0)  -->
<svg version="1.1" id="Layer_1" xmlns="http://www.w3.org/2000/svg" xmlns:xlink="http://www.w3.org/1999/xlink" x="0px" y="0px"
	 viewBox="0 0 512 512" style="enable-background:new 0 0 512 512;" xml:space="preserve">
<style type="text/css">
	.st0{fill:#7ECBFE;}
</style>
<g>
	<path class="st0" d="M140.4,322.1h-1.1c31.9-17.6,43.6-57.8,25.9-89.8s-57.8-43.6-89.8-25.9c-31.9,17.6-43.6,57.8-25.9,89.8
		c6,10.9,15,19.9,25.9,25.9h-1.1c-41,0-74.3,33.3-74.3,74.3v107.4c0,4.6,3.7,8.3,8.3,8.3h198.2c4.6,0,8.3-3.7,8.3-8.3V396.4
		C214.7,355.4,181.4,322.1,140.4,322.1z M57.8,264.3c0-27.4,22.2-49.5,49.5-49.5s49.5,22.2,49.5,49.5s-22.2,49.5-49.5,49.5
		C80,313.8,57.8,291.6,57.8,264.3z M119.1,403.4l-11.7,18.7l-11.7-18.7l11.7-42.2L119.1,403.4z M198.2,495.5H16.5v-99.1
		c0-31.9,25.9-57.8,57.8-57.8h22.2l-17.7,63.9c-0.6,2.2-0.3,4.6,0.9,6.6l20.6,33c2.4,3.9,7.5,5.1,11.4,2.7c1.1-0.7,2-1.6,2.7-2.7
		l20.6-33c1.2-2,1.6-4.4,0.9-6.6l-17.8-63.9h22.2c31.9,0,57.8,25.9,57.8,57.8V495.5z"/>
	<path class="st0" d="M136.3,272.5h-16.5c0,6.8-5.5,12.4-12.4,12.4S95,279.4,95,272.5H78.5c0,16,12.9,28.9,28.9,28.9
		S136.3,288.5,136.3,272.5z M421.2,231.2h-33c-4.6,0-8.3,3.7-8.3,8.3V289c0,4.6,3.7,8.3,8.3,8.3h33c4.6,0,8.3-3.7,8.3-8.3v-49.5
		C429.4,234.9,425.7,231.2,421.2,231.2z M412.9,280.8h-16.5v-33h16.5V280.8z M477.2,151.7c-3.1-3.6-8.5-3.9-12-0.9
		c-0.3,0.3-0.6,0.5-0.9,0.9l-33,41.3c-2.9,3.6-2.3,8.8,1.3,11.6c1.5,1.2,3.3,1.8,5.2,1.8h8.3V289c0,4.6,3.7,8.3,8.3,8.3h33
		c4.6,0,8.3-3.7,8.3-8.3v-82.6h8.3c4.6,0,8.3-3.7,8.3-8.3c0-1.9-0.6-3.7-1.8-5.2L477.2,151.7z M479,198.2v82.6h-16.5v-82.6
		c0-4.3-3.3-7.9-7.6-8.3l15.9-19.8l15.9,19.8C482.3,190.3,479,193.9,479,198.2z M421.2,115.6h-33v-33c0-4.6-3.7-8.3-8.3-8.3h-33
		c-4.6,0-8.3,3.7-8.3,8.3v33h-33c-4.6,0-8.3,3.7-8.3,8.3v33c0,4.6,3.7,8.3,8.3,8.3h33v33c0,4.6,3.7,8.3,8.3,8.3h33
		c4.6,0,8.3-3.7,8.3-8.3v-33h33c4.6,0,8.3-3.7,8.3-8.3v-33C429.4,119.3,425.7,115.6,421.2,115.6z M412.9,148.6h-33
		c-4.6,0-8.3,3.7-8.3,8.3v33h-16.5v-33c0-4.6-3.7-8.3-8.3-8.3h-33v-16.5h33c4.6,0,8.3-3.7,8.3-8.3v-33h16.5v33
		c0,4.6,3.7,8.3,8.3,8.3h33V148.6z"/>
	<path class="st0" d="M285.2,259.7l-43.1,18.9l22-33.9c2-3.1,1.7-7.1-0.7-9.9c-47.6-55.2-41.5-138.6,13.7-186.3
		S415.8,7.1,463.4,62.3c19,22,30.1,49.6,31.8,78.5l16.5-1c-4.7-82-75-144.6-157-139.8S210.3,75.1,215,157
		c1.8,30.6,12.9,59.8,31.9,83.8l-33.7,51.9c-2.5,3.8-1.4,8.9,2.4,11.4c1.3,0.9,2.9,1.3,4.5,1.3c1.1,0,2.3-0.2,3.3-0.7l64.4-28.2
		c20.3,12,43.2,19,66.7,20.4l1-16.5c-22.2-1.3-43.8-8.3-62.6-20.2C290.6,258.8,287.7,258.6,285.2,259.7L285.2,259.7z"/>
</g>
</svg>
