<?xml version="1.0" encoding="utf-8"?>
<!-- Generator: Adobe Illustrator 24.0.1, SVG Export Plug-In . SVG Version: 6.00 Build 0)  -->
<svg version="1.1" id="Layer_1" xmlns="http://www.w3.org/2000/svg" xmlns:xlink="http://www.w3.org/1999/xlink" x="0px" y="0px"
	 viewBox="0 0 512 512" style="enable-background:new 0 0 512 512;" xml:space="preserve">
<style type="text/css">
	.st0{fill:#7ECBFE;}
</style>
<g>
	<g>
		<g>
			<path class="st0" d="M288.8,511c-56.6,0-110.5-21.4-151.8-60.2c-21.1-19.9-38-43.5-50-69.9s-18.7-54.6-19.8-83.6l0-1H54.1
				c-3.8,0-7.5-1.1-10.7-3.1c-9.4-5.9-12.2-18.3-6.4-27.7l35-55.9c4.1-6.5,11.1-10.4,18.8-10.4c7.7,0,14.7,3.9,18.8,10.4l7.1,11.4
				l1.8-0.7c-1.1-4.8-1.6-9.5-1.6-14c0-40.3,32.8-73.1,73.1-73.1h17c40.3,0,73.1,32.8,73.1,73.1c0,7-1.2,13.9-3.4,20.5l-0.1,0.4
				l0.2,0.4c2.2,3.8,3.3,7.8,3.3,11.9c0,13.1-10.7,23.8-23.8,23.8h-9.3l0,1c0,12.4-7.3,23.7-18.5,28.9l-0.8,0.3l1.4,5.6l0.6,0.1
				c24.2,4.8,44.8,19.9,56.6,41.5l1,1.8l0.8-1.8c5.3-11.8,13.7-22,24.4-29.3l0.9-0.6l-0.7-0.8c-9.1-10.5-14.2-23.7-14.2-37.4v-57.8
				c0-39.5,28.3-73.3,67.2-80.2l3-0.5l-2.7-1.3c-24.1-11.9-50.1-18-77.1-18h-7.3V67.1h7.3c61,0.1,119.9,25.6,161.8,70
				c42.4,45.1,63.6,104.1,59.7,166.1c-6.9,111.3-96.1,200.5-207.4,207.4C298.3,510.8,293.5,511,288.8,511z M81.6,289
				c0,57.9,23.2,111.6,65.4,151.2c38.6,36.3,89,56.2,142,56.2c4.4,0,8.8-0.1,13.2-0.4c104-6.5,187.3-89.8,193.8-193.8
				c3.6-58-16.2-113.2-55.9-155.3c-37.6-40-88.3-63.1-142.9-65.2l-1,0v18.5l1,0c36.6,1.5,71.7,13.6,101.5,35l0.2,0.1l0.2,0
				c35.7,8.5,61.5,40,62.6,76.7l0,0.2l0.1,0.2c12.6,28.6,18,60.3,15.6,91.5c-7.2,93.2-83,167.8-176.3,173.6
				c-4.1,0.3-8.2,0.4-12.2,0.4c-48.2,0-94.1-18.2-129.2-51.2c-37.8-35.6-59.5-85.8-59.6-137.7v-7.3h27.5c1,0,2.1-0.3,2.9-0.8
				c1.3-0.8,2.1-2,2.5-3.5c0.3-1.5,0.1-2.9-0.7-4.2l-35-55.9c-1.3-2.1-3.8-3.4-6.5-3.4c-2.7,0-5.1,1.3-6.5,3.4l-35,55.9
				c-0.5,0.9-0.8,1.9-0.8,2.9c0,3.1,2.5,5.6,5.6,5.6h27.5V289z M167.1,413.6c0.4,0.4,0.7,0.8,1.1,1.1c0.4,0.5,0.9,0.9,1.3,1.4
				c32.5,30.5,74.8,47.3,119.3,47.3c3.7,0,7.6-0.1,11.3-0.4c41.4-2.6,80.8-20.1,110.8-49.5l1.8-1.7H165.4L167.1,413.6z M330.6,318
				c-20.6,8.7-33.9,28.7-33.9,51v28.3h128.8l0.3-0.4c13.4-16.9,23.4-35.9,29.8-56.3l0.1-0.4l-0.2-0.4c-6.1-9.8-14.9-17.3-25.5-21.7
				l-1.2-0.5l-0.1,1.3c-2.7,24.7-23.4,43.4-48.3,43.4c-24.9,0-45.7-18.7-48.3-43.5l-0.1-1.3L330.6,318z M151.5,320.1
				c-11.3,6-20.6,14.9-27,26l-0.2,0.4l0.2,0.4c6.2,17.8,15.6,34.7,27.9,50.1l0.3,0.4h129.6v-17c0-25.4-14-48.5-36.4-60.3l-1.3-0.7
				l-7.2,57.3l-38.7-29l-38.7,29l-7.2-57.3L151.5,320.1z M208.7,337.1L226,350l4.5-35.8l-0.9-0.2c-0.7-0.2-1.3-0.3-2-0.4l-1-0.2
				L208.7,337.1z M170.1,313.6c-0.3,0.1-0.6,0.1-0.9,0.2c-0.5,0.1-1.1,0.2-1.6,0.3l-0.9,0.2l4.5,35.8l17.2-12.9l-17.7-23.6
				L170.1,313.6z M365,297c-2.4,8.5-9.3,14.9-17.9,16.7l-0.8,0.2l0,0.8c0.5,18.5,15.4,33.1,33.9,33.1c18.5,0,33.4-14.5,33.9-33.1
				l0-0.8l-0.8-0.2c-8.6-1.9-15.5-8.3-17.9-16.7l-0.2-0.7h-30L365,297z M114.8,297.3c0.5,9.7,1.8,19.3,3.9,28.8l0.4,2l1.3-1.5
				c12.1-14.1,28.7-23.8,46.9-27.3l0.6-0.1l1.4-5.6l-0.7-0.3c-11.3-5.3-18.5-16.6-18.5-28.9v-1h-6.9l1.5,2.3c2,3.2,3,6.8,3,10.6
				c0,11.1-9,20.1-20.1,20.1h-12.8L114.8,297.3z M181.7,304l16.9,22.5l16.9-22.5l-1.9-7.7h-30L181.7,304z M461.2,280.4
				c-1.6,11-6.2,21.2-13.5,29.5l-0.7,0.8l0.9,0.6c4,2.8,7.7,5.9,11,9.5l1.4,1.4l0.4-1.9c1.1-5.8,1.8-11.6,2.3-17.5
				c0.6-7.3,0.7-14.9,0.3-22.4L461.2,280.4z M380.3,147.6c-37,0-67.1,30.1-67.1,67.1v57.8c0,11.7,4.9,23,13.5,30.9l0.5,0.4l0.6-0.2
				c5-1.9,10.3-3.2,15.7-3.9c3.2-0.4,5.8-2.4,7.2-5.3l0.4-0.9l-0.9-0.4c-11.3-5.4-18.3-16.5-18.3-28.8v-48.5h7.3
				c8.6,0,17-3.5,23.1-9.6l18.2-18.2l18.2,18.2c6,6.1,14.4,9.6,23,9.5h7.3v48.5c0,12.3-7.2,23.6-18.3,28.8l-0.9,0.4l0.4,0.9
				c1.3,2.9,4,4.9,7.2,5.3c5.4,0.7,10.6,2,15.7,3.9l0.6,0.2l0.5-0.4c8.6-7.9,13.5-19.2,13.5-30.9v-57.8
				C447.3,177.7,417.2,147.6,380.3,147.6z M372.3,216.4c-6.9,6.9-15.6,11.5-25.2,13.1l-0.8,0.1v34.6c0,9.7,7.9,17.5,17.5,17.5h33
				c9.7,0,17.5-7.9,17.5-17.5v-34.6l-0.8-0.1c-9.6-1.7-18.4-6.2-25.2-13.1l-8-8L372.3,216.4z M174.8,205.5
				c-5.7,0-10.3,4.6-10.3,10.2v48.5c0,9.7,7.9,17.5,17.5,17.5h33c9.7,0,17.5-7.9,17.5-17.5v-34.1l-1,0c-18.7-0.7-36.4-8.4-49.6-21.7
				C180.1,206.5,177.6,205.5,174.8,205.5L174.8,205.5z M247.1,248.7h9.3c5.1,0,9.3-4.2,9.3-9.3s-4.2-9.3-9.3-9.3h-9.3V248.7z
				 M140.8,230.2c-5.1,0-9.3,4.2-9.3,9.3s4.2,9.3,9.3,9.3h9.3v-18.5H140.8z M256.4,215.7c2.4,0,4.7,0.4,7,1.2l1.1,0.4l0.2-1.1
				c0.6-3.2,1-6.6,1-9.9c0-32.3-26.3-58.6-58.6-58.6h-17c-32.3,0-58.6,26.3-58.6,58.6c0,3.3,0.3,6.6,1,9.9l0.2,1.1l1.1-0.3
				c2.6-0.8,4.8-1.2,7-1.2h9.3l0-1c0.5-13.3,11.3-23.8,24.7-23.8c6.6,0,12.9,2.6,17.5,7.3c11.1,11.1,26.4,17.5,42.1,17.5h0.2H256.4z
				 M25.8,114.6v-14.5h130.1v14.5H25.8z M25.8,81.6V67.1h130.1v14.5H25.8z M156.9,48.6c-13.1,0-23.8-10.7-23.8-23.8S143.8,1,156.9,1
				s23.8,10.7,23.8,23.8S170,48.6,156.9,48.6z M156.9,15.5c-5.1,0-9.3,4.2-9.3,9.3s4.2,9.3,9.3,9.3s9.3-4.2,9.3-9.3
				S162,15.5,156.9,15.5z M90.8,48.6c-13.1,0-23.8-10.7-23.8-23.8S77.7,1,90.8,1s23.8,10.7,23.8,23.8S104,48.6,90.8,48.6z
				 M90.8,15.5c-5.1,0-9.3,4.2-9.3,9.3s4.2,9.3,9.3,9.3s9.3-4.2,9.3-9.3S95.9,15.5,90.8,15.5z M24.8,48.6C11.7,48.6,1,37.9,1,24.8
				S11.7,1,24.8,1c13.1,0,23.8,10.7,23.8,23.8S37.9,48.6,24.8,48.6z M24.8,15.5c-5.1,0-9.3,4.2-9.3,9.3s4.2,9.3,9.3,9.3
				c5.1,0,9.3-4.2,9.3-9.3S29.9,15.5,24.8,15.5z"/>
		</g>
	</g>
</g>
</svg>
